<svg width="200" height="87" viewBox="0 0 200 87" fill="none" xmlns="http://www.w3.org/2000/svg">
    <path d="M16.5892 83.598C16.318 82.6425 16.6872 82.324 17.1656 82.1074C16.6853 81.1232 15.9865 81.1965 15.3311 80.8652C15.6776 80.3429 15.9733 79.9416 16.4611 80.2919C16.6495 80.4257 17.0262 80.3206 17.0412 79.7823C17.0563 79.2441 16.7098 79.4447 16.5327 79.2854C16.4296 79.171 16.3095 79.1081 16.1862 79.1039C15.0241 79.33 14.0014 78.6548 13.0314 77.7025C12.3402 77.0241 11.7846 77.1801 11.3589 78.4446C10.9597 77.3585 10.9163 76.4444 11.3815 75.5781C11.6 75.1736 11.6641 74.8009 11.487 74.3041C11.2893 73.7499 11.0689 73.7403 10.7035 73.8805C9.7618 74.2404 8.90672 73.0874 7.96313 73.2434C7.55066 73.3135 6.99128 72.4599 6.75585 73.7467C6.26804 73.2594 5.73315 73.6352 5.22839 73.4919C5.07772 73.4473 5.09278 73.0078 5.17754 73.0014C6.091 72.9441 6.3302 70.912 7.35666 71.1509C7.24366 70.8101 7.21352 70.5871 7.13254 70.4884C6.57881 69.8132 6.73702 68.5137 6.23414 67.7238C5.95163 67.2842 6.40742 67.1409 6.62213 67.0231C6.83684 66.9052 7.25684 67.8639 7.24931 66.7046C7.24931 65.8096 6.94984 65.4847 6.43567 65.7936C6.42248 65.7936 6.39047 65.7299 6.35656 65.6822C6.41872 65.2395 6.73325 65.4274 6.85567 65.1407C6.92065 65.0348 6.995 64.9467 7.07603 64.8795C6.41307 64.2839 6.45073 63.2647 6.50159 62.2264C6.50159 62.1914 6.06087 60.3568 6.08535 60.3154C6.41118 59.8695 6.53549 59.344 6.1136 58.9299C5.76517 58.5891 5.47324 58.9809 5.22651 59.4268C5.08809 59.6355 4.94147 59.8281 4.78767 60.0033C4.97601 58.8981 5.36777 58.2547 5.43557 57.2482C5.55988 55.4009 4.81592 54.2192 4.39592 52.8847C4.10022 51.9451 4.24524 50.5246 3.51259 50.0182C2.83456 49.5563 2.49742 48.7792 2.49931 47.5466C2.4954 47.4669 2.47995 47.3901 2.45433 47.3228C2.42871 47.2556 2.3937 47.2001 2.3524 47.1612C0.574443 46.2917 0.898393 43.1003 0.0452004 41.2147C-0.0150692 41.081 0.013184 40.8357 0 40.6414C1.09427 41.0013 0.517941 39.1285 1.0905 38.5202C1.35153 39.7991 1.44785 41.1577 1.37302 42.5047C1.28638 43.8074 1.79867 44.3839 2.09249 45.2438C2.13204 45.3553 2.41832 45.3744 2.4202 45.3585C2.71025 43.6449 3.26398 44.8998 3.61429 45.1514C4.27726 45.626 4.7726 44.5686 4.88937 44.2405C5.15305 43.4952 4.67278 42.648 4.23206 42.3295C3.79134 42.011 3.45044 41.4632 3.0907 40.979C2.4202 40.0809 2.24316 37.8386 2.73662 36.9404C3.00407 36.4563 3.95331 36.6888 4.23017 37.3258C4.46577 37.9226 4.60771 38.6109 4.64265 39.326C4.6709 39.705 4.42794 40.1509 4.93458 40.0203C5.31126 39.9248 5.48265 39.6031 5.364 39.1094C5.23028 38.5552 5.23404 37.9119 4.91951 37.4341C4.60498 36.9563 4.55412 36.2461 4.91951 35.5231C5.0683 36.2365 5.18884 36.899 5.54104 37.3513C5.81979 37.7112 6.15127 38.0393 5.85557 38.8706C5.70867 39.2878 5.96858 39.8834 6.26051 39.9121C6.63719 39.9439 6.3754 39.3706 6.4319 39.084C6.60518 38.1921 6.77657 37.3831 6.60518 36.3512C6.46204 35.4976 7.07792 34.4752 7.35855 34.3924C8.4886 34.058 7.7503 33.1184 7.67496 32.4209C7.63021 32.1206 7.57164 31.8266 7.4998 31.5418L7.70886 31.1978C7.73335 31.373 7.72393 31.6405 7.78797 31.7106C8.353 32.303 8.89731 32.9846 9.61489 32.8795C9.42655 32.0864 9.23821 31.287 9.08 30.4939C8.99909 29.9611 8.93621 29.4209 8.89166 28.8759C9.56216 29.4811 10.2647 28.8313 10.8429 29.5129C10.8824 29.5575 11.1216 29.3218 11.1198 29.2231C11.1009 27.9268 11.3872 28.4746 11.8298 28.7007C12.2216 28.9014 12.4381 28.1147 12.3666 27.4267C12.3007 26.7897 12.6585 25.6272 11.8317 25.7801C11.5887 25.8247 11.455 25.9489 11.2554 25.2896C11.9748 25.8756 12.6434 24.9169 13.3083 25.6845C13.5362 25.9489 13.6115 25.366 13.7076 25.0475C14.461 22.4995 15.7473 21.3752 17.3916 21.2064C18.079 21.1363 18.6761 20.1107 19.4539 20.6585C19.5707 20.7413 19.6423 20.1776 19.5613 19.7604C19.4162 18.9545 18.8814 18.8717 18.6365 18.1901C19.3899 17.4862 19.9041 19.5406 20.6424 18.5723C20.6951 17.9863 20.4088 17.5563 20.2657 16.9066C21.0021 16.9066 21.714 16.8397 21.8477 15.2567C21.876 14.9095 22.1905 14.9924 22.1999 15.1643C22.2489 16.1708 22.7066 16.3141 23.0682 16.1199C23.6125 15.8014 23.1624 14.9127 23.2735 14.3076C23.2735 14.2598 23.298 14.212 23.3432 14.0337C23.7688 14.5528 24.1474 14.3522 24.6371 14.0751C25.1055 13.8024 25.6168 13.8296 26.0742 14.1515C26.8275 14.7121 27.0159 14.2152 26.7955 12.4507C27.1232 13.8234 27.7372 14.0145 28.4642 13.7247C28.6997 13.6355 28.9897 13.4444 28.9219 13.1132C28.7505 12.2819 29.1931 11.3837 28.7637 10.5811C28.6733 10.4155 28.3663 9.91222 28.7147 9.51409C28.8484 9.36121 28.7901 9.15419 28.7618 8.95034C28.6978 8.50762 28.0084 9.20833 28.3022 8.31334C28.4303 7.93432 29.0556 7.5553 29.1856 7.73366C29.8184 8.57451 30.0369 7.619 30.4004 7.16672C30.5303 7.00747 30.7451 7.04251 30.9937 6.96288C30.9183 7.22724 30.8901 7.35783 30.8468 7.47567C30.6584 7.97254 29.8467 7.86425 30.2233 8.74969C30.519 9.45676 31.0822 8.56495 31.3214 8.24963C31.5606 7.93431 32.0597 7.44383 31.9693 6.47876C31.926 6.02967 32.1482 5.58695 32.4816 5.33533C33.4572 4.59959 34.365 3.66638 35.5308 4.0008C36.1543 4.17917 36.7155 2.79368 37.4143 3.63771C37.4576 3.69186 37.5631 3.63771 37.5913 3.68867C38.4407 5.38311 38.9455 3.81607 39.5501 3.12173C39.7505 2.88542 39.9667 2.68979 40.1942 2.53887C40.3204 2.45606 40.5577 2.43377 40.5445 2.77456C40.5313 3.11536 40.2677 3.6186 40.6801 3.76193C41.0568 3.88933 41.2452 3.37653 41.3827 2.90833C42.0004 0.761622 43.2529 0.535484 44.4093 0.0418042C44.512 -0.00442869 44.6194 -0.0124244 44.7241 0.0183694C44.8288 0.0491632 44.9283 0.118012 45.0158 0.220165C45.1608 0.484523 44.9593 0.838062 44.8745 1.17568C44.5242 2.57709 44.7201 4.00717 45.0082 5.35763C45.093 5.7462 45.5902 5.99463 45.5996 5.24615C45.6128 4.36708 46.0705 4.20783 46.2249 3.65363C46.3794 3.09944 46.6412 3.14403 46.8954 3.03574C46.8954 3.72052 47.5904 3.67274 47.4605 4.45626C47.3041 5.37992 47.6902 5.44999 48.0104 5.37036C48.9634 5.13467 49.9428 5.27163 50.8751 4.73336C51.0484 4.63462 51.4402 4.75884 51.4665 4.92446C51.7716 6.51698 52.5193 5.49777 52.7454 5.24297C53.2765 4.63781 53.8264 4.99772 54.3557 4.6824C54.0769 5.24615 53.5816 5.3194 53.5082 6.23669C53.4799 6.58705 53.0448 6.92148 53.2614 7.39605C53.3556 7.60626 53.7078 7.56804 53.9319 7.51389C54.5274 7.38607 55.1166 7.18488 55.6948 6.91192C55.8342 6.84185 56.2278 6.52016 55.9528 5.85449C55.7645 5.37992 55.9528 4.86395 56.2071 4.66647C56.6554 4.31931 56.435 5.14423 56.5706 5.37992C57.0772 6.26536 58.5425 6.28129 59.0737 5.37992C59.1815 5.20364 59.2987 5.04476 59.424 4.90535C59.4635 4.86076 59.5351 4.88624 59.601 4.87987C59.7498 5.39903 59.3035 5.51688 59.3468 5.96278C59.375 6.26217 59.4259 6.80363 59.6274 6.47239C60.1585 5.59969 60.151 6.61572 60.4297 6.85778C60.8573 7.22724 61.4788 7.14443 61.9911 6.99473C63.5901 6.52653 65.1025 7.79736 66.7844 7.42471C66.1667 8.1509 66.178 8.59999 66.6921 9.31026C67.244 10.0715 67.2459 12.8871 66.807 13.7916C67.6037 14.263 67.6037 14.263 68.0482 13.2501C68.568 12.0685 69.0106 13.5686 69.5305 13.4412C69.6736 13.4062 69.5455 14.3331 69.2687 14.6133C68.9089 14.9828 69.0219 16.1613 68.327 16.037C68.1085 15.9956 67.9088 16.69 68.327 17.0467C68.5153 17.2155 68.7545 17.5213 68.9183 17.448C70.2499 16.8333 71.5777 17.4926 72.8735 17.6614C74.5385 17.8844 76.179 17.4576 77.8514 17.6614C80.0494 17.9098 82.302 17.6232 84.5263 17.5149C85.1196 17.4862 85.6338 17.3652 86.2365 17.655C86.7902 17.9226 87.4268 18.3112 88.0069 17.2155C88.0978 17.051 88.2099 16.9241 88.3345 16.8445C88.4591 16.765 88.5929 16.735 88.7254 16.7569C88.858 16.7787 88.9858 16.8519 89.0989 16.9706C89.2121 17.0893 89.3076 17.2505 89.378 17.4416C89.5136 17.7601 89.9129 18.4258 90.4082 17.999C90.7623 17.6805 90.9846 18.5309 91.4404 18.4991C92.4349 18.4353 93.4258 18.2608 94.4068 17.9767C94.7401 17.8748 95.2411 17.3397 95.5086 18.5596C95.6122 19.0374 96.5068 18.7921 96.7027 18.429C97.5709 16.8365 98.7104 17.2091 99.7161 17.206C101.436 17.1555 103.149 16.841 104.835 16.2664C105.048 16.1995 105.31 15.9988 105.447 16.3492C105.585 16.6995 105.436 17.0244 105.229 17.2601C104.974 17.4699 104.697 17.5933 104.413 17.6232C103.159 17.7283 101.878 17.5977 100.743 18.7794C100.577 18.9514 100.434 19.0979 100.5 19.5119C100.518 19.6989 100.577 19.8671 100.666 19.9825C100.755 20.0979 100.867 20.1517 100.978 20.133C101.703 19.8432 102.485 20.3719 103.172 19.6266C103.255 19.5044 103.356 19.4238 103.464 19.3939C103.572 19.3641 103.683 19.3862 103.784 19.4578C104.758 20.2158 105.236 19.3463 105.508 17.741C105.958 18.601 105.762 20.3368 106.764 20.0343C107.399 19.84 108.128 20.8464 108.685 19.6107C108.72 19.567 108.76 19.5376 108.803 19.5249C108.846 19.5122 108.89 19.5165 108.932 19.5374C110.847 20.5725 112.746 19.4896 114.65 19.4164C115.769 19.375 116.872 19.0979 118.01 19.2762C119.085 19.4514 120.2 19.2316 121.281 18.9896C124.018 18.3812 126.773 18.222 129.516 17.7793C130.081 17.6901 130.646 17.8844 131.247 17.9544C130.699 18.6774 131.134 20.0725 130.493 20.77C130.305 20.5375 130.216 20.0056 129.917 19.9929C129.463 19.9929 128.975 19.7094 128.598 20.34C128.497 20.5057 128.389 20.9579 128.425 21.0121C128.594 21.2362 128.79 21.3969 128.999 21.4837C129.208 21.5705 129.425 21.5812 129.636 21.5153C130.367 21.3592 131.043 21.7351 131.746 21.8338C132.448 21.9325 133.222 22.4199 133.817 21.1681C134.034 20.7127 134.324 21.1044 134.582 21.3083C135.452 21.9994 136.313 22.2383 137.078 20.9261C137.341 20.4738 137.567 20.4929 137.935 20.7254C140.006 22.0408 142.178 22.3593 144.254 21.2955C145.08 20.8719 145.847 20.2891 146.732 20.3082C147.898 20.3337 149.064 20.3942 150.226 20.3082C151.631 20.2031 153.013 21.0853 154.426 20.4993C154.637 20.4204 154.858 20.4458 155.061 20.5725C155.835 21.0758 156.599 21.0057 157.398 20.7254C158.031 20.512 158.684 20.5512 159.306 20.8401C160.76 21.4261 162.319 22.0791 163.881 21.0598C164.257 20.8114 164.834 21.0407 165.237 21.3497C166.261 22.13 166.932 21.9867 167.171 19.6744C166.815 20.7382 167.261 21.1841 167.565 21.3656C167.956 21.6013 168.004 20.7509 168.194 20.356C168.465 20.8624 168.469 20.8687 168.653 20.4547C168.77 20.1967 168.887 19.9514 169.105 20.047C169.262 20.1139 169.294 20.3209 169.188 20.4993C168.747 21.1968 169.113 21.2892 169.41 21.2446C169.614 21.2159 170.188 21.6363 169.906 20.6076C169.806 20.2413 170.313 19.4896 169.751 19.5788C169.19 19.668 168.444 18.5819 168.166 20.3018C167.915 19.7094 167.472 19.1488 167.81 18.343C168.12 17.5913 168.629 17.8079 169.098 17.8748C169.652 17.9544 170.211 18.1169 170.716 17.4193C171.017 17.0021 171.121 17.12 171.382 17.8844C171.509 18.2506 171.731 18.1328 171.878 18.0946C172.13 18.0309 172.364 17.7538 172.795 18.1105C172.465 17.2525 171.958 16.6334 171.373 16.3747C171.128 16.26 170.795 16.1517 170.695 15.6357C170.64 15.3491 170.799 15.1389 170.944 15.0433C171.284 14.8172 171.45 15.3045 171.654 15.6007C172.004 16.1103 172.328 16.6804 172.701 17.1327C172.906 17.3843 173.226 17.7379 173.426 17.1327C173.605 16.5785 173.266 16.4384 173.066 16.2345C172.88 16.0361 172.685 15.8646 172.482 15.7217C172.415 15.6871 172.352 15.6286 172.298 15.5502C172.245 15.4717 172.202 15.3751 172.172 15.2665C172.142 15.158 172.126 15.04 172.125 14.9203C172.124 14.8006 172.138 14.6819 172.166 14.5719C172.191 14.3634 172.253 14.1731 172.345 14.028C172.437 13.8829 172.553 13.7902 172.678 13.7629C173.019 13.7311 173.164 13.9859 172.995 14.6038C172.953 14.7598 173.183 15.0019 173.262 14.9032C173.872 14.2216 174.684 14.6993 175.017 15.0433C176.016 16.0689 177.119 14.3617 178.044 15.8555C177.434 15.6994 176.914 16.9384 176.298 15.9033C176.2 15.7376 176.063 15.9033 175.991 16.1008C175.969 16.1551 175.955 16.2175 175.95 16.2829C175.945 16.3483 175.949 16.4148 175.962 16.477C175.975 16.5391 175.996 16.5952 176.025 16.6405C176.053 16.6859 176.087 16.7192 176.125 16.7378C176.692 17.0797 177.212 17.6165 177.65 18.3143C178.106 19.0119 178.551 17.8557 178.988 17.5436C179.278 17.8812 178.988 18.4067 179.159 18.7284C179.3 18.9832 178.993 19.7508 179.479 19.5597C179.775 19.4418 180.276 19.6616 180.223 18.7571C180.155 17.6009 180.634 17.843 180.977 17.8716C181.319 17.9003 181.707 18.015 181.382 18.894C181.314 19.0788 181.4 19.3113 181.551 19.3399C181.627 19.3731 181.708 19.3542 181.776 19.2875C181.844 19.2208 181.894 19.1115 181.915 18.9832C182.067 18.1869 182.157 18.4895 182.508 18.8558C183.18 19.5661 184.031 19.4514 184.819 19.4546C185.22 19.4546 185.572 19.3559 185.712 20.1808C185.638 21.2191 185.335 21.6363 184.678 21.5949C183.627 21.5344 182.583 20.8273 181.511 21.4771C181.365 21.5663 180.967 21.2414 181.112 21.7383C181.235 22.1555 180.839 22.9677 181.442 23.0441C182.222 23.1429 182.997 23.334 183.775 23.4837C183.836 23.4837 183.928 23.5346 183.964 23.4837C185.094 21.5408 186.542 22.9231 187.815 22.474C188.275 22.3147 188.441 23.2066 188.857 23.283C188.668 23.8213 188.446 23.6015 188.25 23.6397C188.169 23.6827 188.095 23.756 188.033 23.8541C187.971 23.9523 187.923 24.0728 187.893 24.2067C187.804 24.6048 188.06 24.6844 188.203 24.7704C188.548 24.9774 188.87 25.0889 189.156 25.6304C189.369 26.0221 189.842 26.4425 190.151 25.4488C190.249 25.1303 190.603 25.038 190.844 24.8373C190.656 24.1047 190.252 23.9232 189.701 23.5346C190.954 23.5712 192.203 23.795 193.434 24.2035C193.726 24.3096 194.028 24.3144 194.322 24.2175C194.615 24.1206 194.894 23.9241 195.142 23.6397C195.256 23.4675 195.403 23.3703 195.556 23.3656C195.709 23.3609 195.858 23.4491 195.976 23.6142C196.383 24.1589 196.852 24.7163 197.076 25.4552C197.43 26.6273 197.894 26.8534 198.596 26.7069C198.85 26.6528 199.14 27.07 199.604 27.4108C198.961 27.6369 198.685 27.8185 199.155 28.7644C199.391 29.239 199.201 30.357 199.155 31.1819C199.093 32.1533 198.577 32.0992 198.187 32.4559C197.598 32.9942 196.956 33.0929 196.321 33.5293C196.931 35.8384 198.276 36.3958 199.413 37.4022C200.129 38.0393 200.142 37.9851 199.709 39.3483C199.455 38.5425 199.144 38.1921 198.645 38.7846C198.02 39.5203 197.072 38.998 196.554 40.2433C196.488 40.3994 196.306 40.4599 196.279 40.616C196.023 42.1416 195.473 42.527 194.63 41.9218C194.584 41.8868 194.509 41.9537 194.441 41.9919C194.42 41.9919 194.411 42.0683 194.353 42.2371C194.884 42.6289 195.123 43.8742 195.918 43.5557C195.972 43.5334 196.451 43.8201 196.421 44.4921C196.398 44.9858 196.345 45.3744 196.055 45.6037C195.172 46.3044 194.737 47.7058 194.596 49.1327C194.511 50.0054 194.437 50.3144 193.961 50.3653C193.752 50.3876 193.396 50.2953 193.396 50.652C193.414 51.2162 193.537 51.7565 193.746 52.1967C194.027 52.7828 194.021 51.9738 194.162 51.8368C194.228 51.7611 194.307 51.7286 194.386 51.7457C194.464 51.7627 194.536 51.828 194.588 51.9292C194.724 52.1776 194.622 52.4038 194.532 52.6299C194.283 53.251 193.921 53.0663 193.59 52.9834C192.995 52.8306 192.407 53.3402 192.243 54.0058C192.079 54.6715 192.705 55.0442 193.119 55.334C193.59 55.6525 193.496 57.9139 192.965 58.6942C192.619 59.1795 192.332 59.7733 192.119 60.4428C191.754 59.3344 191.403 58.7547 190.691 59.981C190.205 60.8186 189.437 60.5256 188.787 60.5033C188.183 60.4778 187.945 60.7167 188.267 61.7264C188.278 61.7768 188.292 61.8249 188.309 61.8697C188.635 62.4239 188.309 63.6278 188.753 63.803C189.301 64.0228 189.929 63.803 190.509 63.6469C190.833 63.5641 191.042 63.3507 191.209 64.0992C191.433 65.0929 190.949 64.647 190.782 64.8286C190.315 65.335 190.1 66.4211 189.431 66.4784C189.396 66.4784 189.324 66.6982 189.333 66.7173C189.925 67.8161 189.145 68.4468 189.015 69.2813C188.753 70.8961 189.045 72.1478 189.934 72.9154C190.092 73.0491 190.298 73.1352 190.298 73.7499C189.215 73.3454 188.149 73.6256 187.107 73.9856C186.563 74.1767 185.941 74.6767 185.6 75.3774C185.058 76.4985 184.435 76.6514 183.698 76.5336C183.391 76.4826 183.09 76.5336 182.977 77.0336C182.828 77.7025 183.271 77.8872 183.461 77.9573C184.105 78.1898 184.361 79.5498 185.088 79.4606C185.229 82.0087 186.81 81.0531 187.497 82.2921C187.665 82.5947 188.143 82.6106 187.862 83.2476C187.691 83.6426 187.363 83.7477 187.036 83.4578C186.047 82.582 185.305 82.9769 184.719 84.5248C184.487 85.1427 184.252 86.49 183.677 84.9039C183.574 84.6172 183.331 84.7319 183.148 84.8179C183.003 84.8879 182.771 85.1364 182.736 85.0567C182.022 83.8146 181.157 84.7764 180.376 84.6268C179.873 84.5312 180.05 83.547 179.481 83.461C178.728 83.3464 178.069 85.4198 177.313 83.6808C175.68 84.9293 173.901 84.1012 172.211 84.6554C171.797 84.7892 171.269 84.0025 170.791 83.6298C170.561 83.9483 171.092 84.6777 170.659 84.7319C170.154 84.7924 169.636 85.2255 169.128 84.7605C169.109 84.7392 169.092 84.7116 169.08 84.6793C169.067 84.647 169.059 84.6107 169.054 84.5726C168.883 82.8877 168.866 82.9801 168 82.5852C167.407 82.3176 166.681 82.738 166.207 81.601C166.128 81.4131 165.399 81.5245 165.453 82.4132C165.563 84.0057 165.003 83.9356 164.38 83.8082C164.269 83.7859 164.078 83.8592 164.088 83.5598C164.107 82.9737 164.288 83.7063 164.433 83.4642C164.679 83.0502 164.51 82.6903 164.393 82.5087C164.246 82.2975 164.073 82.1473 163.886 82.0698C163.699 81.9924 163.503 81.99 163.316 82.0628C162.967 82.1902 163.299 82.7412 163.293 83.0948C163.274 84.098 162.796 84.1331 162.366 84.0503C162.212 84.0248 162.05 83.4897 161.894 83.6617C160.807 84.8433 159.607 82.7444 158.504 84.0503C158.234 84.3688 157.846 84.0503 157.72 83.3559C157.816 82.8017 158.027 83.0725 158.24 83.1043C159.182 83.254 160.133 83.3082 161.088 82.4355C160.426 82.0229 159.718 81.8641 159.016 81.9704C158.511 82.0787 157.724 81.7889 157.714 83.3559C157.615 83.2317 157.486 82.9674 157.419 83.0024C155.443 84.0694 153.381 82.9673 151.392 83.7063C151.081 83.8209 150.8 83.6521 150.721 83.1234C150.608 82.3654 151.019 82.6966 151.205 82.5565C152.094 81.8876 152.983 82.738 153.878 82.5565C154.499 82.4661 155.123 82.4459 155.746 82.496C156.016 82.496 156.274 82.496 156.311 81.9481C156.326 81.7612 156.304 81.5714 156.251 81.4061C156.197 81.2407 156.114 81.1082 156.014 81.0277C155.358 80.4639 154.507 81.2761 153.9 80.1645C153.803 79.9862 153.754 80.7856 153.43 80.9226C152.168 81.4608 151.034 81.2952 150.068 79.6772L150.092 79.725C150.817 79.1899 151.599 79.4224 152.324 79.4925C155.837 79.8365 159.347 79.7473 162.858 79.6454C164.617 79.5944 166.356 79.3269 167.943 77.7853C168.403 77.3394 168.646 76.2565 169.35 76.4476C169.527 76.4986 169.476 76.0654 169.373 75.8488C169.149 75.3838 168.864 75.3965 168.527 75.4316C166.671 75.6561 164.807 75.6433 162.952 75.3933C162.436 75.3169 161.903 75.5303 161.357 75.6163C161.515 76.2883 161.822 76.1291 162.086 76.1864C162.349 76.2437 162.762 75.9093 162.719 76.868C162.683 77.677 162.389 77.8681 162.022 77.6866C161.457 77.4063 160.854 77.5305 160.276 77.3681C160.626 75.6609 160.387 75.1385 159.359 75.4316C158.624 75.6481 157.901 75.9284 157.151 75.9412C156.827 75.9412 156.55 75.8584 156.524 76.8457C156.501 77.7089 155.833 77.3203 155.744 76.8744C155.356 74.8774 154.281 75.9189 153.575 75.3774C153.29 75.164 153.217 75.7946 153.249 76.2501C153.281 76.7056 153.128 76.7948 152.912 76.7756C152.755 76.7597 152.55 76.7342 152.586 76.3903C152.753 74.82 152 75.9444 151.723 75.5908C151.262 75.0016 151.347 76.1992 151.053 76.5081C150.657 75.371 150.077 75.5908 149.567 76.1163C149.28 76.4126 148.987 76.5814 148.736 76.4348C147.252 75.4793 145.741 76.6323 144.188 76.1163C142.726 75.6195 141.065 75.3233 139.511 76.2883C139.018 76.6068 138.554 75.8647 137.976 75.9475C136.454 76.1641 134.912 76.0017 133.377 76.0176C130.552 76.0463 127.749 76.6164 124.922 76.5686C123.509 76.5463 121.909 76.2979 120.724 77.2884C118.959 78.7663 117.24 77.6069 115.539 77.8681C114.168 78.0783 112.714 78.3427 111.271 78.2885C109.828 78.2344 108.303 78.3713 106.852 79.0498C106.395 79.2285 105.922 79.2769 105.455 79.1931C104.913 79.1326 104.922 78.0815 104.805 77.5846C104.57 76.5814 104.34 77.0113 104.067 77.2948C103.959 77.4095 104.008 77.8713 103.798 77.8426C102.914 77.7216 102.374 78.8937 101.665 79.4351C100.876 80.0307 99.4299 79.5657 98.7518 78.5338C98.5899 78.2885 98.2923 78.0274 98.1284 78.1229C97.8195 78.3013 98.1284 78.7249 98.1152 79.0306C98.0907 79.6677 97.8082 80.3047 98.2866 80.8589C98.3601 80.9448 98.0568 81.4003 97.9099 81.4003C97.6011 81.4003 97.2394 82.015 96.9814 81.2761C96.8194 80.8015 96.7253 80.7506 96.4371 81.1328C96.228 81.4099 95.8551 81.3876 95.5538 81.3939C95.1243 81.3939 94.8173 80.6869 94.3145 80.8589C93.951 80.9831 93.5442 80.741 93.0093 80.6327C93.8003 80.0658 94.4802 80.2378 95.1375 80.1454C95.8556 80.0877 96.5689 79.9149 97.2677 79.6294C96.8684 79.1103 96.5143 79.3555 96.2111 79.3109C95.9079 79.2663 95.5952 79.4511 95.4577 78.693C95.4069 78.3936 95.1017 77.8936 94.904 78.4828C94.3879 80.0053 94.177 78.572 94.0677 78.1643C93.8173 77.2375 93.5762 77.0719 93.1392 77.7917C92.3162 79.1453 91.1371 78.4287 90.1841 79.295C90.2482 79.8938 90.5891 80.0308 90.8885 80.2505C90.913 80.4448 90.9996 80.7251 90.9544 80.8206C90.7454 81.2442 88.9825 81.5182 88.6943 81.206C88.3402 80.8111 87.892 80.8875 87.5473 80.225C87.2818 79.7091 87.4494 80.8939 87.148 80.8907C86.5642 79.7505 85.8504 79.5944 85.0254 80.2537C84.7033 80.5053 84.1214 81.1296 84.0065 79.7345C83.9914 79.553 83.8483 79.4574 83.8181 79.5753C83.5394 80.6104 83.0026 79.7059 82.7276 79.967C81.9178 80.7442 81.1248 80.0435 80.3696 79.967C79.7254 79.9002 79.2395 79.9097 78.8045 80.655C78.4278 81.292 77.9852 81.2283 77.5953 80.9226C76.9643 80.4257 76.1733 81.2219 75.6346 80.1613C74.4613 81.9513 73.077 80.6391 71.8 80.9162C71.2651 81.0309 70.8696 82.0596 70.2518 81.636C70.0635 81.5022 69.5512 81.722 69.8751 80.8015C69.9636 80.5595 69.7659 80.069 69.4853 80.1295C69.4219 80.1344 69.3598 80.1614 69.3028 80.2088C69.2459 80.2561 69.1953 80.3228 69.1543 80.4048C69.1133 80.4867 69.0827 80.582 69.0645 80.6848C69.0462 80.7876 69.0407 80.8956 69.0483 81.0022C69.1123 81.8175 69.1462 82.3272 68.6415 81.3971C68.052 83.0151 67.6998 80.4416 67.1347 81.1423C66.986 81.3239 67.0199 80.9098 67.0161 80.7251C67.0161 80.19 66.7844 80.3747 66.6149 80.4066C66.3607 80.4321 66.3833 80.6104 66.3927 81.0149C66.4247 82.2603 65.8088 82.8177 65.0479 82.3558C64.287 81.894 63.7088 81.0372 62.9761 80.5308C62.1964 79.9989 62.1625 80.8493 62.0664 81.4863C61.9045 82.531 61.46 83.1362 61.0343 82.4705C60.5296 81.6806 60.0474 82.8336 59.6462 82.2635C59.2018 81.6264 58.8043 81.0754 58.3448 82.1998C58.3052 82.2233 58.2629 82.2307 58.2213 82.2213C58.1798 82.2119 58.1401 82.1859 58.1056 82.1456C57.5764 80.8493 56.7872 81.1901 56.0545 81.1901C55.6564 81.2521 55.255 81.2188 54.8623 81.0914C53.8453 80.6263 52.9281 81.4513 51.9506 81.4959C51.8941 82.2029 52.7284 82.5597 52.1031 83.3814C51.7076 83.9006 51.3931 84.1968 51.1727 83.2222C50.9957 82.4418 50.7791 82.5342 50.4871 82.9578C50.0539 83.5948 49.6829 83.5598 49.3062 82.7794C49.165 82.4896 48.9013 82.0405 48.6696 82.3717C47.7957 83.6044 46.8314 82.7858 45.9029 82.8622C44.9743 82.9387 44.0628 83.1521 43.0909 82.8017C42.5692 82.6106 41.8196 82.2061 41.1849 83.031C40.9739 83.3018 40.4598 83.1011 40.1358 82.8877C39.4145 82.4163 38.7233 82.2125 37.9962 82.8208C37.9058 82.8973 37.6761 82.8527 37.6629 82.7794C37.3126 80.9735 36.2277 82.9546 35.7795 81.7284C35.4235 82.3654 34.8001 81.378 34.495 82.3399C34.4559 82.4584 34.3928 82.549 34.3174 82.5952C34.242 82.6415 34.1593 82.6401 34.0844 82.5915C32.7453 81.7953 31.2423 82.8336 29.9107 81.5564C29.8052 81.4545 28.9803 81.6997 28.5678 81.9991C27.837 82.5342 27.1515 82.2221 26.5168 81.8685C25.882 81.515 25.0929 81.0659 24.5222 81.2315C22.9966 81.6997 21.6029 80.5563 20.1319 80.6678C19.1902 80.7378 18.8719 81.171 19.0942 82.359C19.3955 83.9706 18.7872 83.7763 18.3031 83.4706C17.6684 83.0661 17.109 83.0438 16.544 83.6712L16.5892 83.598ZM79.9665 73.2339C79.6049 73.2594 79.8535 71.8866 79.1378 72.3867C78.6971 72.7052 78.1434 72.7052 77.648 72.6319C75.6516 72.3803 73.657 72.5396 71.6625 72.5459C71.0504 72.5459 70.3611 73.116 69.8488 72.4567C69.6685 72.2249 69.4608 72.0613 69.2398 71.9772C69.0188 71.8931 68.7897 71.8905 68.568 71.9694C68.0735 72.0653 67.5748 72.0834 67.0782 72.0236C65.8634 71.9376 64.6505 72.0554 63.43 71.6828C62.3207 71.3452 61.1869 72.8485 60.0399 71.7751C59.9966 71.7337 59.876 71.7751 59.8722 71.7943C59.6462 73.339 58.8458 72.495 58.3354 72.8517C58.1263 72.9982 57.7478 72.6797 57.7176 73.2657C57.6875 73.8518 58.0547 73.9219 58.3241 74.0174C59.9966 74.6035 61.6954 73.667 63.3698 74.2595C63.43 74.2642 63.4899 74.243 63.5439 74.1979C63.5979 74.1527 63.6443 74.0852 63.6787 74.0015C63.9103 72.6924 64.3755 73.3645 64.7503 73.683C64.95 73.8486 65.1063 74.0588 65.3474 73.9664C66.1274 73.67 66.9353 73.6483 67.7205 73.9027C68.907 74.2786 70.0861 73.3708 71.25 73.7499C73.06 74.3327 74.8285 73.4027 76.614 73.5938C77.5953 73.7021 78.6105 72.6383 79.5672 73.8072C79.7405 74.0079 79.9119 73.7817 79.9665 73.2339ZM97.9815 72.6797C97.918 72.4212 97.8124 72.1984 97.6771 72.0371C97.5418 71.8759 97.3822 71.7829 97.2168 71.7688C95.4652 71.7146 93.7118 71.6828 91.9621 71.8006C91.5553 71.8261 91.1164 71.7433 90.6889 72.0586C89.6021 72.8612 88.4495 72.9727 87.2799 72.6956C87.0802 72.6478 86.9032 72.6956 86.8862 73.1288C86.8693 73.5619 87.0746 73.7658 87.2328 73.6416C87.8939 73.0937 88.4702 73.8773 89.0936 73.9027C92.0581 74.0333 94.9624 73.0173 97.9815 72.6797ZM156.814 23.4295C157.066 24.0093 157.427 24.426 157.838 24.6103C158.25 24.7946 158.686 24.7353 159.074 24.4424C159.387 24.2321 159.946 23.1492 160.302 24.5411C160.391 24.8787 160.545 24.7386 160.698 24.6589C162.485 23.7034 164.303 24.3086 166.111 24.3946C167.116 24.4423 168.122 24.5793 169.286 24.694C168.96 24.1459 168.523 23.8262 168.064 23.799C165.774 23.5824 163.483 23.4104 161.197 23.1397C160.852 23.0983 160.144 23.8436 160.193 22.2765C160.193 22.1778 159.929 21.9357 159.709 22.044C158.75 22.525 157.788 22.9549 156.814 23.4295ZM58.1338 76.5208C59.1999 77.8649 65.0008 77.763 65.6129 76.3489C63.0496 76.4826 60.5936 76.0272 58.1338 76.5208ZM56.9699 79.6485C55.8398 77.7216 54.561 79.7186 53.3424 79.1835C52.138 78.6396 50.8628 78.751 49.698 79.502C50.4269 79.6422 50.7583 81.0531 51.3441 80.4575C51.8432 79.9511 52.2858 80.139 52.7585 80.0722C54.1598 79.9097 55.5762 80.1167 56.9699 79.6485ZM81.7953 74.441C82.5054 74.3518 83.2719 74.5652 83.8483 74.1002C84.466 73.6065 85.1045 75.3519 85.5999 73.8422C85.6375 73.7244 86.0538 74.3009 86.0914 73.6702C86.1291 73.0396 85.7147 73.3199 85.5264 73.1861C85.1853 72.9183 84.7997 72.8597 84.4359 73.0205C83.5827 73.5651 82.7502 73.2052 81.9102 73.1256C81.5712 73.0937 81.1192 72.5491 81.0401 73.6129C80.961 74.6767 81.5561 74.1926 81.7953 74.441ZM176.658 21.9357C177.826 22.8912 178.852 23.2607 179.937 22.5727C180.161 22.4294 180.549 23.0027 180.609 22.1937C180.658 21.5312 180.108 21.6746 180.044 21.1204C179.694 21.3369 179.193 20.7413 178.973 21.7574C178.922 21.9962 178.475 22.3052 178.374 21.923C177.795 19.7285 177.338 21.4866 176.658 21.9357ZM50.9787 77.1196C50.4137 76.6705 49.7978 77.1196 49.2836 76.5941C49.238 76.5775 49.1909 76.5776 49.1453 76.5943C49.0997 76.611 49.0568 76.644 49.0193 76.691C48.9819 76.7381 48.9508 76.7981 48.9282 76.867C48.9055 76.936 48.8919 77.0123 48.8881 77.091C48.9051 77.728 48.6998 77.9 48.3815 77.9446C48.0048 77.9987 48.0839 78.4032 48.2176 78.7058C48.4059 79.1549 48.0858 80.1454 48.7073 80.1199C48.9371 80.1199 49.2912 80.0658 49.261 79.5116C49.1612 77.6929 49.7978 77.435 50.6416 77.5209C50.7452 77.5337 50.8883 77.5432 50.9787 77.1196ZM170.589 21.6332C171.422 22.2956 172.269 21.528 173.106 21.7414C173.228 21.7733 173.443 21.5663 173.354 21.235C173.264 20.9255 173.142 20.646 172.993 20.4101C172.264 21.1363 171.851 19.7731 171.245 19.6616C170.868 19.5947 170.663 19.7221 170.465 20.1553C170.716 20.8687 171.181 20.4738 171.535 20.6522C171.322 21.4452 170.912 21.2796 170.589 21.6332ZM47.242 79.9193C47.6789 80.0976 47.9954 79.6995 47.9954 79.1039C48.0048 77.9095 47.242 77.7184 46.8502 77.6292C46.4585 77.5401 45.8784 78.607 45.9688 79.2791C46.0931 80.2027 46.8239 79.6103 47.242 79.9225V79.9193ZM125.333 19.7412C125.374 20.2763 125.272 20.9324 125.779 20.9993L127.73 21.2414C127.842 21.2601 127.953 21.2038 128.04 21.0845C128.127 20.9653 128.183 20.7927 128.195 20.6044C128.261 20.0056 127.907 20.2381 127.753 20.1266C126.984 19.5756 126.173 19.5661 125.333 19.7412ZM96.3279 19.9196C97.5935 20.684 98.8554 20.0757 100.117 19.7444C100.161 19.7444 100.227 19.4737 100.211 19.359C100.155 18.98 99.9987 19.1998 99.8555 19.1966C98.6664 19.1248 97.4779 19.3688 96.3335 19.9196H96.3279ZM193.411 39.4789C194.125 40.1159 194.873 38.8419 195.52 39.8929C195.618 40.0554 195.852 39.3674 195.94 39.0234C196.029 38.6795 195.805 38.1603 195.652 38.1985C194.893 38.3928 193.976 37.8832 193.417 39.4789H193.411ZM191.993 57.7196C191.804 56.9902 191.544 56.3245 191.034 56.28C190.882 56.28 190.495 56.5029 190.595 57.073C190.646 57.4338 190.754 57.7641 190.908 58.0277C191.062 58.2912 191.256 58.4778 191.469 58.5668C191.787 58.6846 191.976 58.3088 191.998 57.7196H191.993ZM198.293 29.5002C198.246 28.9874 198.315 28.137 197.958 28.4045C197.46 28.7772 197.675 30.1213 197.193 30.7424C197.104 30.8538 197.355 31.1405 197.509 31.1182C198.125 31.0258 198.123 30.1149 198.298 29.5002H198.293ZM48.7261 81.9227C48.7544 81.9227 49.133 82.187 49.1876 81.2857C49.2422 80.3843 48.8561 80.7697 48.6489 80.6869C48.2025 80.5085 48.0029 81.085 47.9633 81.6264C47.9238 82.1679 48.244 82.0023 48.7261 81.9227ZM187.757 69.1825C187.945 68.6474 188.655 69.501 188.687 68.3226C188.708 67.5518 188.1 68.5392 188.064 67.7779C187.914 67.8105 187.773 67.9084 187.652 68.062C187.532 68.2156 187.438 68.4196 187.378 68.6538C187.297 69.0424 187.469 69.2016 187.757 69.1825ZM184.966 71.3483C184.598 71.4184 184.08 71.3006 184.079 71.9217C184.079 72.6701 184.815 72.1828 184.996 72.8931C185.146 72.495 185.399 72.1096 185.423 71.6923C185.45 71.205 185.12 71.3675 184.966 71.3483ZM15.2369 25.8597C14.9017 25.194 14.8395 24.3118 14.25 24.4583C14.0918 24.4965 13.9374 24.6812 14.0296 25.0029C14.2519 25.7801 14.687 25.7832 15.2369 25.8597ZM34.0279 77.6929C33.0447 76.6419 33.3065 78.6198 32.8357 78.8204C32.7302 78.8682 32.9506 79.0975 33.024 79.1198C33.6832 79.295 33.6851 78.2503 34.0279 77.6929Z" fill="black"/>
    <path d="M164.02 17.4576C163.755 18.4131 163.551 18.7316 162.943 18.7316C161.888 18.6934 160.831 18.464 159.765 18.5182C159.355 18.5373 158.669 18.8654 158.204 18.1997C158.161 18.136 158.074 18.0277 158.065 18.0436C157.123 19.5278 155.865 17.6009 154.906 18.9036C154.853 18.9736 154.646 18.8526 154.569 18.722C153.676 17.2378 152.554 18.1901 151.582 18.1137C150.386 18.0213 149.663 18.3908 148.757 17.9481C148.668 17.9067 148.568 17.741 148.504 17.7793C146.433 18.8972 144.393 17.4608 142.336 17.6296C140.927 17.7442 139.498 17.5818 138.125 18.3558C137.978 18.4456 137.818 18.4535 137.669 18.3781C136.622 17.7092 135.554 17.3397 134.236 17.8844C134.351 17.5799 134.523 17.3484 134.724 17.2257C134.925 17.103 135.145 17.0961 135.349 17.206C135.725 17.327 136.004 16.9098 136.347 16.8875C137.245 16.8078 138.155 16.467 139.038 16.6199C140.873 16.9384 142.66 16.2218 144.453 16.2186C145.077 16.2186 146.09 15.1612 146.645 16.8556C146.711 17.0563 146.883 16.9734 146.956 16.776C147.267 15.9542 147.534 15.8459 147.777 16.862C147.809 16.9094 147.847 16.9428 147.888 16.9589C147.929 16.975 147.972 16.9735 148.013 16.9543C149.143 15.6803 150.399 16.8078 151.591 16.4702C152.062 16.3364 152.567 16.7441 153.057 16.3619C153.23 16.2281 153.539 16.2919 153.471 16.6645C153.179 18.2379 153.821 17.362 154.013 17.2187C155.008 16.4638 155.938 16.9002 156.957 17.0372C157.976 17.1741 158.944 18.8685 160.071 17.4735C160.393 17.0754 161.114 17.2728 161.521 17.4321C162.319 17.7187 163.095 17.499 164.02 17.4576Z" fill="black"/>
    <path d="M178.916 11.3837C177.922 11.7468 177.63 9.70838 176.692 10.0524C176.652 10.6894 176.835 11.6863 176.315 12.0908C176.115 12.2261 175.9 12.2801 175.685 12.2486C175.471 12.217 175.264 12.1008 175.081 11.9092C174.616 11.4888 174.801 10.5843 174.516 10.0651C174.756 9.84216 174.744 8.82613 175.245 9.4281C175.453 9.66301 175.67 9.87576 175.893 10.0651C175.97 10.1621 176.065 10.2041 176.16 10.1821C176.255 10.16 176.34 10.0756 176.398 9.94726C176.524 9.64787 176.441 9.41536 176.283 9.15101C175.909 8.45804 175.474 7.86523 174.995 7.39287C174.793 7.20814 174.705 6.91192 174.806 6.61572C174.951 6.18574 175.129 6.56157 175.258 6.7049C175.437 6.90237 175.603 7.3419 175.824 7.14762C177.255 5.83538 178.312 8.38022 179.651 8.17956C179.755 8.1802 179.858 8.22562 179.949 8.31158C180.04 8.39754 180.117 8.52122 180.172 8.67107C180.228 8.82092 180.26 8.99205 180.265 9.16844C180.271 9.34484 180.25 9.52075 180.204 9.67972C180.016 10.4123 179.639 10.0492 179.315 9.88675L179.227 9.8326C178.871 9.67653 178.336 9.19559 178.178 9.64787C177.869 10.5333 178.57 10.7244 178.916 11.3837Z" fill="black"/>
    <path d="M110.337 17.0117C110.337 15.9192 110.698 15.4828 111.294 15.5179C112.117 15.5688 113.087 15.7058 113.733 15.3714C114.77 14.8363 115.774 14.7344 116.808 14.6197C117.2 14.5783 117.586 14.6993 117.974 14.4159C118.149 14.2885 118.539 13.9031 118.571 14.6388C118.596 15.1994 118.893 16.1326 118.123 16.1867C116.739 16.2887 115.382 16.7632 113.964 16.569C113.311 16.4798 112.497 16.0402 111.789 16.8875C111.38 17.3748 110.826 16.8333 110.337 17.0117Z" fill="black"/>
    <path d="M141.161 81.7443C140.408 82.6074 139.701 82.6234 138.825 82.2603L139.328 83.4101C139.231 83.3959 139.135 83.3617 139.042 83.3082C138.236 82.5883 137.36 82.2507 136.486 82.5883C136.019 82.7731 135.733 82.3718 135.699 81.98C135.661 81.3939 136.029 81.499 136.321 81.5596C137.91 81.8781 139.515 81.3207 141.161 81.7443Z" fill="black"/>
    <path d="M166.45 20.2413C166.133 20.184 165.811 20.0247 165.508 20.0916C164.721 20.2604 165.069 18.6329 164.542 18.3876C164.641 18.1063 164.784 17.8754 164.954 17.7187C165.668 17.1677 166.357 17.6964 167.054 17.7474C167.267 17.7665 167.354 18.1901 167.344 18.4768C167.331 18.8654 167.133 18.9036 166.928 18.8112C166.813 18.7571 166.687 18.7921 166.57 18.7539C166.28 18.6647 165.934 18.601 165.856 19.1711C165.755 19.8782 166.16 19.9738 166.45 20.2413Z" fill="black"/>
    <path d="M164.8 76.1864C165.233 76.2374 165.666 76.3361 166.098 76.3266C166.474 76.3266 166.548 76.524 166.499 77.161C166.435 77.9764 166.271 77.6738 165.968 77.5401C165.436 77.3107 164.903 77.0527 164.323 77.626C164.048 77.8968 163.417 77.7407 163.382 76.9222C163.348 76.0367 163.879 76.2374 164.235 76.2246C164.423 76.2246 164.611 76.2246 164.8 76.2246V76.1864Z" fill="black"/>
    <path d="M16.5647 83.5725C15.9997 84.3592 16.8567 84.2764 16.8209 84.872C16.3161 85.044 15.979 85.7479 15.5628 86.2575C15.2162 86.6843 14.8791 86.576 14.6851 86.0855C14.4515 85.4835 14.6851 84.5885 14.9563 84.493C15.5213 84.2923 15.9639 83.4451 16.5873 83.5948L16.5647 83.5725Z" fill="black"/>
    <path d="M118.582 81.4353C118.582 80.6837 118.927 80.9863 119.129 80.9767C120.391 80.9035 121.635 81.5373 122.907 81.2315C123.095 81.1869 123.295 81.2697 123.238 81.7443C123.197 82.0851 123.073 82.4323 122.862 82.2762C121.743 81.4194 120.585 81.9927 119.445 81.9163C119.149 81.8972 118.861 81.5978 118.569 81.4162L118.582 81.4353Z" fill="black"/>
    <path d="M125.636 14.005C124.651 14.4063 123.79 15.5593 122.677 15.3746C123.306 12.9699 124.56 13.7311 125.645 13.6387C125.642 13.7597 125.638 13.884 125.636 14.005Z" fill="black"/>
    <path d="M105.903 16.4607C106.683 15.4096 107.583 16.053 108.425 15.9415C108.497 15.9415 108.644 16.1008 108.64 16.1485C108.625 16.3449 108.574 16.5285 108.495 16.6741C108.065 17.2665 106.404 17.12 105.903 16.4607Z" fill="black"/>
    <path d="M118.575 81.4162C117.592 82.5756 116.503 81.8844 115.467 81.8653C115.418 81.8653 115.332 81.6424 115.332 81.5245C115.334 81.4721 115.343 81.4209 115.357 81.3743C115.371 81.3277 115.391 81.2865 115.415 81.2534C115.44 81.2203 115.468 81.1959 115.498 81.1817C115.527 81.1675 115.559 81.1639 115.59 81.171C116.588 81.2283 117.611 80.483 118.582 81.4353L118.575 81.4162Z" fill="black"/>
    <path d="M132.712 81.2411C131.802 82.6329 130.923 82.5151 130.043 82.5405C130.52 79.983 131.58 81.2411 132.712 81.2411Z" fill="black"/>
    <path d="M139.052 78.9574C137.769 78.916 136.818 80.5499 135.697 79.3651C136.65 77.935 137.733 78.4987 139.052 78.9574Z" fill="black"/>
    <path d="M127.71 13.2661C128.207 13.0399 128.614 12.8393 129.028 12.6737C129.442 12.508 129.435 12.5271 129.378 13.2915C129.335 13.868 129.746 13.9286 129.802 14.4382C129.425 14.3936 129.115 13.8012 128.691 14.1579C128.267 14.5146 127.992 13.9413 127.71 13.2661Z" fill="black"/>
    <path d="M197.641 53.3975C197.522 52.5853 197.428 51.9993 197.357 51.4037C197.315 51.0852 197.295 50.7667 197.031 50.8272C196.767 50.8877 196.79 51.2603 196.78 51.547C196.763 52.0056 196.954 52.5025 196.637 52.9675C196.726 52.012 196.072 51.0151 196.844 50.2666C196.9 50.2136 196.961 50.1813 197.024 50.1719C197.087 50.1625 197.151 50.1763 197.21 50.2123C197.27 50.2483 197.325 50.3056 197.37 50.3804C197.415 50.4552 197.451 50.5456 197.474 50.6456C197.722 51.4451 198.031 52.2573 197.641 53.3975Z" fill="black"/>
    <path d="M150.087 79.6485C150.064 80.0594 150.275 80.7123 149.796 80.6932C149.354 80.6741 148.855 80.8302 148.514 80.1741C148.431 80.0148 148.487 79.5721 148.546 79.3014C148.623 78.951 148.81 79.1612 148.951 79.2122C149.341 79.3492 149.759 79.295 150.111 79.6963L150.087 79.6485Z" fill="black"/>
    <path d="M144.807 81.3143C145.282 83.5438 146.173 82.6265 147.148 82.3622C146.382 83.7827 145.576 83.1648 144.907 83.3177C144.643 83.3941 144.581 82.3431 144.807 81.3143Z" fill="black"/>
    <path d="M132.589 12.6354C132.476 13.059 132.401 13.3202 132.339 13.5909C132.183 14.1865 131.829 14.3362 131.627 13.9572C131.426 13.5782 130.896 13.8521 130.949 13.1578C131.002 12.4634 131.407 12.8393 131.65 12.7724C131.961 12.698 132.275 12.6523 132.589 12.6354Z" fill="black"/>
    <path d="M140.131 13.3234C140.571 12.301 141.709 12.1927 142.265 13.2183C141.511 13.1482 140.845 13.5495 140.131 13.3234Z" fill="black"/>
    <path d="M125.636 14.005C125.636 13.884 125.636 13.7597 125.645 13.6387C125.873 13.247 126.186 13.2915 126.44 13.3839C126.666 13.4699 127.133 12.9699 127.099 13.7311C127.056 14.6643 126.749 13.6323 126.617 13.7789C126.389 14.0305 126.24 14.4955 125.997 14.693C125.502 15.107 125.459 14.6739 125.636 14.005Z" fill="black"/>
    <path d="M126.717 77.8713C126.937 78.1484 127.457 77.5783 127.314 78.4351C127.199 79.1135 126.683 79.1389 126.329 79.3523C126.141 79.4702 125.99 79.002 126.06 78.7153C126.176 78.2344 126.289 77.5719 126.717 77.8713Z" fill="black"/>
    <path d="M90.9092 80.1773C91.5087 79.9606 92.1337 80.0884 92.6853 80.5404C91.9602 81.8144 91.4705 80.5404 90.9055 80.1741L90.9092 80.1773Z" fill="black"/>
    <path d="M110.322 15.9479C109.958 16.9034 109.632 17.3684 109.12 17.2824C109.09 17.2775 109.061 17.2605 109.036 17.2328C109.01 17.2051 108.989 17.1675 108.974 17.1232C108.96 17.0788 108.951 17.0291 108.95 16.9781C108.949 16.9271 108.955 16.8763 108.968 16.8301C109.212 15.8651 109.67 15.8874 110.322 15.9479Z" fill="black"/>
    <path d="M145.295 80.7283C145.031 79.9193 144.73 80.0053 144.367 80.3811C144.302 80.448 144.169 79.9575 144.231 79.9225C144.716 79.6379 145.211 79.407 145.713 79.2313C145.792 79.2058 145.768 79.5944 145.713 79.7664C145.593 80.0626 145.455 80.3397 145.295 80.7283Z" fill="black"/>
    <path d="M117.015 11.8647C116.462 12.6609 115.765 12.1832 115.247 12.7214C115.237 12.7214 115.109 12.5271 115.111 12.4252C115.113 12.3233 115.192 12.1067 115.249 12.1067C115.806 11.9857 116.343 11.4665 117.015 11.8647Z" fill="black"/>
    <path d="M185.702 20.1617C186.674 19.8623 186.674 19.8623 187.002 21.0376C186.437 21.3752 186.437 21.3561 186.12 20.3782C186.069 20.2254 185.849 20.2317 185.706 20.1617H185.702Z" fill="black"/>
    </svg>
    