<svg width="150" height="73" viewBox="0 0 150 73" fill="none" xmlns="http://www.w3.org/2000/svg">
<path d="M0.000228588 15.8642C0.000228588 7.39621 7.50129 -0.0244402 16.0123 6.04991e-05C24.2617 0.0214986 31.8643 7.39008 31.8151 15.8918C31.7689 24.1118 25.0407 31.7499 15.803 31.6672C6.91315 31.5845 -0.0459602 23.9342 0.000228588 15.8642ZM15.8091 27.9951C22.5835 28.6077 28.2247 22.6356 28.2893 16.1338C28.3571 8.81725 22.6574 3.32909 15.7229 3.51591C9.23491 3.69048 3.96015 8.14653 3.48902 15.4294C3.04869 22.1762 9.0132 28.4025 15.8091 27.9951Z" fill="white"/>
<path d="M41.7579 46.5662C41.6101 48.4558 41.0282 49.8156 39.4793 50.5659C37.8011 51.3775 36.1876 51.3101 34.7834 49.984C34.274 49.4828 33.8141 48.9341 33.4101 48.3455C31.3131 45.4054 29.2654 42.4255 27.1377 39.5069C25.906 37.8378 25.6904 36.8608 27.2116 35.4888C28.4925 34.3311 29.6965 32.7325 31.7381 32.7661C32.24 32.7661 32.942 32.9958 33.1976 33.3633C35.9228 37.2957 38.5894 41.2709 41.2406 45.2554C41.4666 45.6695 41.6404 46.1097 41.7579 46.5662Z" fill="white"/>
<path d="M26.4726 33.4471C25.5473 33.3189 24.8416 32.8699 24.5942 31.974C24.2292 30.6519 25.7447 29.475 27.1223 29.5239C28.0345 29.5564 28.7519 29.8842 29.133 30.7092C29.7572 32.0603 27.9533 33.6523 26.4726 33.4471Z" fill="white"/>
<path d="M46.0357 29.3952C44.3555 29.3952 42.9053 29.0968 41.6851 28.5C40.4849 27.9032 39.5548 26.998 38.8947 25.7844C38.2546 24.5509 37.9346 22.9693 37.9346 21.0396V8.9238C37.9346 8.70496 37.9946 8.53586 38.1146 8.41649C38.2346 8.27723 38.4046 8.2076 38.6247 8.2076H40.1549C40.3749 8.2076 40.5449 8.27723 40.665 8.41649C40.805 8.53586 40.875 8.70496 40.875 8.9238V21.0992C40.875 23.0489 41.335 24.4912 42.2552 25.4263C43.1753 26.3613 44.4355 26.8289 46.0357 26.8289C47.6159 26.8289 48.8661 26.3613 49.7862 25.4263C50.7264 24.4912 51.1964 23.0489 51.1964 21.0992V8.9238C51.1964 8.70496 51.2564 8.53586 51.3764 8.41649C51.5165 8.27723 51.6865 8.2076 51.8865 8.2076H53.4467C53.6468 8.2076 53.8068 8.27723 53.9268 8.41649C54.0668 8.53586 54.1368 8.70496 54.1368 8.9238V21.0396C54.1368 22.9693 53.8068 24.5509 53.1467 25.7844C52.5066 26.998 51.5865 27.9032 50.3863 28.5C49.1861 29.0968 47.7359 29.3952 46.0357 29.3952Z" fill="white"/>
<path d="M59.8428 29.0968C59.6227 29.0968 59.4527 29.0371 59.3327 28.9178C59.2127 28.7785 59.1527 28.6094 59.1527 28.4105V8.9238C59.1527 8.70496 59.2127 8.53586 59.3327 8.41649C59.4527 8.27723 59.6227 8.2076 59.8428 8.2076H72.2345C72.4545 8.2076 72.6246 8.27723 72.7446 8.41649C72.8646 8.53586 72.9246 8.70496 72.9246 8.9238V10.0578C72.9246 10.2766 72.8646 10.4457 72.7446 10.5651C72.6246 10.6845 72.4545 10.7441 72.2345 10.7441H62.0331V17.2795H71.5744C71.7944 17.2795 71.9645 17.3491 72.0845 17.4884C72.2045 17.6078 72.2645 17.7769 72.2645 17.9957V19.0998C72.2645 19.2988 72.2045 19.4679 72.0845 19.6071C71.9645 19.7265 71.7944 19.7862 71.5744 19.7862H62.0331V26.5603H72.4745C72.6946 26.5603 72.8646 26.62 72.9846 26.7393C73.1046 26.8587 73.1646 27.0278 73.1646 27.2466V28.4105C73.1646 28.6094 73.1046 28.7785 72.9846 28.9178C72.8646 29.0371 72.6946 29.0968 72.4745 29.0968H59.8428Z" fill="white"/>
<path d="M84.0995 29.3952C82.3593 29.3952 80.8991 29.1366 79.7189 28.6194C78.5387 28.0822 77.6286 27.3958 76.9885 26.5603C76.3684 25.7048 76.0384 24.7996 75.9984 23.8447C75.9984 23.6855 76.0584 23.5463 76.1784 23.4269C76.3184 23.2876 76.4785 23.218 76.6585 23.218H78.1887C78.4287 23.218 78.6087 23.2777 78.7288 23.3971C78.8488 23.5164 78.9288 23.6557 78.9688 23.8148C79.0688 24.2923 79.3088 24.7698 79.6889 25.2472C80.089 25.7048 80.639 26.0928 81.3391 26.4111C82.0592 26.7095 82.9794 26.8587 84.0995 26.8587C85.8198 26.8587 87.0799 26.5603 87.88 25.9634C88.7002 25.3467 89.1102 24.531 89.1102 23.5164C89.1102 22.8201 88.8902 22.2631 88.4501 21.8453C88.0301 21.4076 87.38 21.0197 86.4998 20.6815C85.6197 20.3432 84.4796 19.9752 83.0794 19.5773C81.6192 19.1595 80.409 18.7019 79.4489 18.2046C78.4887 17.7072 77.7686 17.0905 77.2886 16.3544C76.8285 15.6183 76.5985 14.6833 76.5985 13.5493C76.5985 12.475 76.8885 11.52 77.4686 10.6845C78.0487 9.829 78.8788 9.15259 79.9589 8.65522C81.0591 8.15786 82.3893 7.90918 83.9495 7.90918C85.1897 7.90918 86.2698 8.07828 87.1899 8.41649C88.1301 8.7348 88.9102 9.17248 89.5303 9.72953C90.1504 10.2667 90.6204 10.8536 90.9405 11.4902C91.2605 12.1069 91.4305 12.7137 91.4505 13.3105C91.4505 13.4498 91.4005 13.5891 91.3005 13.7283C91.2005 13.8477 91.0405 13.9074 90.8204 13.9074H89.2302C89.0902 13.9074 88.9402 13.8676 88.7802 13.788C88.6401 13.7084 88.5301 13.5592 88.4501 13.3404C88.3301 12.5247 87.87 11.8383 87.0699 11.2813C86.2698 10.7243 85.2297 10.4457 83.9495 10.4457C82.6493 10.4457 81.5892 10.6944 80.769 11.1918C79.9689 11.6891 79.5689 12.465 79.5689 13.5194C79.5689 14.1958 79.7589 14.7628 80.139 15.2204C80.519 15.6581 81.1191 16.046 81.9392 16.3842C82.7593 16.7224 83.8295 17.0805 85.1497 17.4585C86.7499 17.8962 88.0601 18.3637 89.0802 18.8611C90.1003 19.3386 90.8505 19.9454 91.3305 20.6815C91.8306 21.3977 92.0806 22.3227 92.0806 23.4567C92.0806 24.7101 91.7506 25.7844 91.0905 26.6796C90.4304 27.555 89.5003 28.2314 88.3001 28.7089C87.1199 29.1665 85.7197 29.3952 84.0995 29.3952Z" fill="white"/>
<path d="M101.06 29.0968C100.86 29.0968 100.69 29.0371 100.55 28.9178C100.43 28.7785 100.37 28.6094 100.37 28.4105V10.8635H94.6087C94.4087 10.8635 94.2387 10.8038 94.0986 10.6845C93.9786 10.5452 93.9186 10.3761 93.9186 10.1772V8.9238C93.9186 8.70496 93.9786 8.53586 94.0986 8.41649C94.2387 8.27723 94.4087 8.2076 94.6087 8.2076H109.071C109.291 8.2076 109.461 8.27723 109.581 8.41649C109.721 8.53586 109.791 8.70496 109.791 8.9238V10.1772C109.791 10.3761 109.721 10.5452 109.581 10.6845C109.461 10.8038 109.291 10.8635 109.071 10.8635H103.34V28.4105C103.34 28.6094 103.27 28.7785 103.13 28.9178C103.01 29.0371 102.84 29.0968 102.62 29.0968H101.06Z" fill="white"/>
<path d="M83.4928 66.8474C81.7921 66.8474 80.3315 66.5588 79.111 65.9817C77.8905 65.3847 76.9502 64.4793 76.2899 63.2654C75.6296 62.0316 75.2595 60.4894 75.1794 58.6387C75.1594 57.7631 75.1494 56.9273 75.1494 56.1313C75.1494 55.3154 75.1594 54.4696 75.1794 53.594C75.2595 51.7632 75.6396 50.2409 76.3199 49.027C77.0202 47.7932 77.9806 46.8778 79.2011 46.2808C80.4416 45.6639 81.8722 45.3555 83.4928 45.3555C85.1335 45.3555 86.5641 45.6639 87.7846 46.2808C89.0251 46.8778 89.9955 47.7932 90.6958 49.027C91.3961 50.2409 91.7762 51.7632 91.8363 53.594C91.8763 54.4696 91.8963 55.3154 91.8963 56.1313C91.8963 56.9273 91.8763 57.7631 91.8363 58.6387C91.7762 60.4894 91.4061 62.0316 90.7258 63.2654C90.0655 64.4793 89.1252 65.3847 87.9047 65.9817C86.6842 66.5588 85.2135 66.8474 83.4928 66.8474ZM83.4928 64.3101C85.0335 64.3101 86.284 63.8524 87.2444 62.937C88.2248 62.0216 88.755 60.5391 88.835 58.4894C88.8751 57.5939 88.8951 56.7979 88.8951 56.1014C88.8951 55.385 88.8751 54.589 88.835 53.7134C88.795 52.3403 88.5349 51.2259 88.0547 50.3702C87.5945 49.5145 86.9743 48.8877 86.194 48.4897C85.4136 48.0917 84.5133 47.8927 83.4928 47.8927C82.5124 47.8927 81.6321 48.0917 80.8518 48.4897C80.0714 48.8877 79.4412 49.5145 78.961 50.3702C78.5008 51.2259 78.2407 52.3403 78.1807 53.7134C78.1607 54.589 78.1506 55.385 78.1506 56.1014C78.1506 56.7979 78.1607 57.5939 78.1807 58.4894C78.2607 60.5391 78.7909 62.0216 79.7713 62.937C80.7517 63.8524 81.9922 64.3101 83.4928 64.3101Z" fill="white"/>
<path d="M104.194 66.8474C102.513 66.8474 101.063 66.5489 99.8423 65.9519C98.6418 65.3549 97.7114 64.4494 97.0511 63.2355C96.4109 62.0017 96.0908 60.4197 96.0908 58.4894V46.3704C96.0908 46.1515 96.1508 45.9823 96.2708 45.8629C96.3909 45.7236 96.5609 45.654 96.781 45.654H98.3117C98.5318 45.654 98.7018 45.7236 98.8219 45.8629C98.9619 45.9823 99.032 46.1515 99.032 46.3704V58.5491C99.032 60.4993 99.4921 61.942 100.413 62.8773C101.333 63.8126 102.593 64.2803 104.194 64.2803C105.775 64.2803 107.025 63.8126 107.946 62.8773C108.886 61.942 109.356 60.4993 109.356 58.5491V46.3704C109.356 46.1515 109.416 45.9823 109.536 45.8629C109.676 45.7236 109.846 45.654 110.046 45.654H111.607C111.807 45.654 111.967 45.7236 112.087 45.8629C112.227 45.9823 112.297 46.1515 112.297 46.3704V58.4894C112.297 60.4197 111.967 62.0017 111.307 63.2355C110.667 64.4494 109.746 65.3549 108.546 65.9519C107.345 66.5489 105.895 66.8474 104.194 66.8474Z" fill="white"/>
<path d="M124.067 66.8474C122.327 66.8474 120.866 66.5887 119.686 66.0713C118.505 65.534 117.595 64.8474 116.954 64.0116C116.334 63.1559 116.004 62.2505 115.964 61.2953C115.964 61.1361 116.024 60.9968 116.144 60.8774C116.284 60.7381 116.444 60.6684 116.624 60.6684H118.155C118.395 60.6684 118.575 60.7281 118.695 60.8475C118.815 60.9669 118.895 61.1062 118.935 61.2654C119.035 61.743 119.275 62.2206 119.656 62.6982C120.056 63.1559 120.606 63.544 121.306 63.8624C122.027 64.1609 122.947 64.3101 124.067 64.3101C125.788 64.3101 127.049 64.0116 127.849 63.4146C128.669 62.7977 129.079 61.9818 129.079 60.9669C129.079 60.2705 128.859 59.7133 128.419 59.2954C127.999 58.8576 127.349 58.4695 126.468 58.1312C125.588 57.7929 124.448 57.4248 123.047 57.0268C121.586 56.6089 120.376 56.1512 119.415 55.6537C118.455 55.1562 117.735 54.5393 117.255 53.803C116.794 53.0667 116.564 52.1314 116.564 50.9971C116.564 49.9225 116.854 48.9673 117.435 48.1315C118.015 47.2758 118.845 46.5992 119.926 46.1017C121.026 45.6042 122.357 45.3555 123.917 45.3555C125.158 45.3555 126.238 45.5246 127.159 45.8629C128.099 46.1813 128.879 46.6191 129.5 47.1763C130.12 47.7136 130.59 48.3007 130.91 48.9375C131.23 49.5544 131.4 50.1613 131.42 50.7583C131.42 50.8976 131.37 51.0369 131.27 51.1762C131.17 51.2956 131.01 51.3553 130.79 51.3553H129.2C129.059 51.3553 128.909 51.3155 128.749 51.2359C128.609 51.1563 128.499 51.007 128.419 50.7881C128.299 49.9722 127.839 49.2857 127.039 48.7285C126.238 48.1713 125.198 47.8927 123.917 47.8927C122.617 47.8927 121.556 48.1415 120.736 48.639C119.936 49.1365 119.536 49.9125 119.536 50.9672C119.536 51.6438 119.726 52.211 120.106 52.6687C120.486 53.1065 121.086 53.4945 121.907 53.8328C122.727 54.1711 123.797 54.5293 125.118 54.9074C126.718 55.3452 128.029 55.8129 129.049 56.3104C130.07 56.788 130.82 57.3949 131.3 58.1312C131.801 58.8476 132.051 59.773 132.051 60.9072C132.051 62.1609 131.721 63.2355 131.06 64.131C130.4 65.0066 129.47 65.6832 128.269 66.1608C127.089 66.6185 125.688 66.8474 124.067 66.8474Z" fill="white"/>
<path d="M136.675 66.5489C136.455 66.5489 136.285 66.4892 136.164 66.3698C136.044 66.2305 135.984 66.0613 135.984 65.8623V46.3704C135.984 46.1515 136.044 45.9823 136.164 45.8629C136.285 45.7236 136.455 45.654 136.675 45.654H149.07C149.29 45.654 149.46 45.7236 149.58 45.8629C149.7 45.9823 149.76 46.1515 149.76 46.3704V47.5047C149.76 47.7236 149.7 47.8927 149.58 48.0121C149.46 48.1315 149.29 48.1912 149.07 48.1912H138.866V54.7283H148.41C148.63 54.7283 148.8 54.798 148.92 54.9373C149.04 55.0567 149.1 55.2258 149.1 55.4447V56.5492C149.1 56.7482 149.04 56.9173 148.92 57.0566C148.8 57.176 148.63 57.2357 148.41 57.2357H138.866V64.0116H149.31C149.53 64.0116 149.7 64.0713 149.82 64.1907C149.94 64.3101 150 64.4793 150 64.6982V65.8623C150 66.0613 149.94 66.2305 149.82 66.3698C149.7 66.4892 149.53 66.5489 149.31 66.5489H136.675Z" fill="white"/>
<path d="M49.5863 60.4375C49.5392 60.4375 49.501 60.4757 49.501 60.5228C49.501 60.57 49.5392 60.6082 49.5863 60.6082C49.6335 60.6082 49.6717 60.57 49.6717 60.5228C49.6717 60.4757 49.6335 60.4375 49.5863 60.4375Z" fill="white"/>
<path fill-rule="evenodd" clip-rule="evenodd" d="M49.7998 46.7989V46.9458H51.4915V46.7989H49.7998ZM50.0285 47.6432C49.998 47.8512 50.0102 48.2672 50.3028 48.2672C50.5954 48.2672 50.9429 48.2427 51.08 48.2305C51.1867 48.1938 51.4001 48.0837 51.4001 47.9368V47.6432H50.0285Z" fill="white"/>
<path fill-rule="evenodd" clip-rule="evenodd" d="M49.7998 46.7989V46.9458H51.4915V46.7989H49.7998ZM50.0285 47.6432C49.998 47.8512 50.0102 48.2672 50.3028 48.2672C50.5954 48.2672 50.9429 48.2427 51.08 48.2305C51.1867 48.1938 51.4001 48.0837 51.4001 47.9368V47.6432H50.0285Z" fill="white"/>
<path fill-rule="evenodd" clip-rule="evenodd" d="M49.7998 46.7989V46.9458H51.4915V46.7989H49.7998ZM50.0285 47.6432C49.998 47.8512 50.0102 48.2672 50.3028 48.2672C50.5954 48.2672 50.9429 48.2427 51.08 48.2305C51.1867 48.1938 51.4001 48.0837 51.4001 47.9368V47.6432H50.0285Z" fill="white"/>
<path d="M65.9151 49.2147C65.4457 49.2147 65.3885 48.8241 65.4186 48.6287L66.7726 48.5922V48.9584C66.7726 49.1415 66.5018 49.2147 65.9151 49.2147Z" fill="white"/>
<path fill-rule="evenodd" clip-rule="evenodd" d="M55.646 33.2744V54.9198H60.8534V33.2744C60.8534 33.2744 62.7687 38.4643 65.034 41.0837C67.2741 43.6741 72.0799 46.3217 72.0799 46.3217H68.8478V66.4639H70.8376L60.8534 73V59.8501H55.646V73L45.9166 66.4639H47.9201V46.3217H44.835C44.835 46.3217 49.6133 43.937 51.7679 41.4233C54.0644 38.7439 55.646 33.2744 55.646 33.2744ZM49.1598 50.0291V46.7255H49.2512V50.0291H49.1598ZM49.4341 46.4319V46.3217H51.5372V46.4319H49.4341ZM51.8573 46.4319V46.3217H53.9605V46.4319H51.8573ZM54.1891 49.8823V46.6154H54.2805V49.8823H54.1891ZM49.4341 50.3962V50.2493H54.0062V50.3962H49.4341ZM49.7084 50.0291V48.5975H51.6287V50.0291H49.7084ZM51.8573 50.0291V48.5975H53.7318V50.0291H51.8573ZM51.6287 48.3773H49.7084C49.7694 47.79 49.8456 46.7329 49.6627 47.2027C49.4798 47.6725 49.4341 47.0069 49.4341 46.6154H53.9605V46.8356C53.9147 46.9213 53.7867 47.0632 53.6404 46.9458C53.4575 46.7989 51.3544 46.8356 51.6287 47.0559C51.8481 47.2321 51.7201 47.3251 51.6287 47.3495V48.3773ZM51.9487 48.3773V47.0559H53.7318V48.3773H51.9487ZM65.2523 48.1895V46.9079H66.9223V48.1895H65.2523ZM62.8151 47.4571C62.8602 47.1641 62.9776 46.6515 63.0859 46.9444C63.1942 47.2374 63.1611 47.9209 63.131 48.2261H64.8913C64.8461 47.7501 64.8552 46.7834 65.2523 46.7248C66.1947 46.5857 66.6713 46.7169 66.9121 46.7831C67.0749 46.8279 67.1298 46.843 67.148 46.7248V46.4319H62.8151V47.4571ZM64.801 46.6516H63.2213V46.798H64.801V46.6516ZM63.0859 49.8372V48.4091H64.8913V49.8372H63.0859ZM64.6656 48.7021V48.9584H63.3116C63.3416 48.8607 63.6546 48.6728 64.6656 48.7021ZM65.1621 48.4091V49.8372H66.9675V48.4091H65.1621ZM65.9151 49.2147C65.4457 49.2147 65.3885 48.8241 65.4186 48.6287L66.7726 48.5922V48.9584C66.7726 49.1415 66.5018 49.2147 65.9151 49.2147ZM62.9505 50.1668V50.0203H66.8772V50.1668H62.9505Z" fill="white"/>
</svg>
