<svg width="48" height="48" viewBox="0 0 48 48" fill="none" xmlns="http://www.w3.org/2000/svg">
<path d="M24.002 40C32.8386 40 40.002 32.8366 40.002 24C40.002 15.1634 32.8386 8 24.002 8C15.1654 8 8.00195 15.1634 8.00195 24C8.00195 32.8366 15.1654 40 24.002 40ZM24.002 44C12.9563 44 4.00195 35.0456 4.00195 24C4.00195 12.9543 12.9563 4 24.002 4C35.0476 4 44.002 12.9543 44.002 24C44.002 35.0456 35.0476 44 24.002 44Z" fill="black"/>
<path d="M34.75 29.2158V33.4886C34.75 34.123 34.2595 34.6493 33.6269 34.6941C33.0983 34.7314 32.6672 34.75 32.3333 34.75C21.6558 34.75 13 26.0942 13 15.4167C13 15.0828 13.0187 14.6516 13.056 14.1231C13.1007 13.4904 13.6271 13 14.2613 13H18.5343C18.8444 13 19.1042 13.2349 19.1353 13.5435C19.1633 13.8205 19.1893 14.043 19.2133 14.2108C19.4578 15.9178 19.957 17.5426 20.6713 19.0453C20.786 19.2865 20.7112 19.5753 20.4939 19.7305L17.886 21.5934C19.4737 25.3022 22.4478 28.2764 26.1566 29.8641L28.0161 27.2606C28.1733 27.0407 28.4655 26.9651 28.7095 27.081C30.2122 27.7947 31.8368 28.2934 33.5436 28.5372C33.7104 28.5612 33.9314 28.5869 34.2065 28.6147C34.5151 28.6459 34.75 28.9057 34.75 29.2158Z" fill="black"/>
</svg>
