<svg width="48" height="48" viewBox="0 0 48 48" fill="none" xmlns="http://www.w3.org/2000/svg">
<path d="M26.002 39.8762C33.8946 38.892 40.002 32.1592 40.002 24C40.002 15.1634 32.8386 8 24.002 8C15.1654 8 8.00195 15.1634 8.00195 24C8.00195 32.1592 14.1093 38.892 22.002 39.8762V28H18.002V24H22.002V20.6916C22.002 18.0171 22.2804 17.0472 22.8034 16.0695C23.3262 15.0917 24.0936 14.3243 25.0714 13.8014C25.8368 13.3921 26.7862 13.145 28.4454 13.0391C29.1038 12.997 29.9562 13.0507 31.002 13.2V17H30.002C28.1674 17 27.4104 17.0866 26.9578 17.3287C26.6772 17.4788 26.4808 17.6752 26.3306 17.9559C26.0886 18.4084 26.002 18.8571 26.002 20.6916V24H31.002L30.002 28H26.002V39.8762ZM24.002 44C12.9563 44 4.00195 35.0456 4.00195 24C4.00195 12.9543 12.9563 4 24.002 4C35.0476 4 44.002 12.9543 44.002 24C44.002 35.0456 35.0476 44 24.002 44Z" fill="black"/>
</svg>
