<svg width="48" height="48" viewBox="0 0 48 48" fill="none" xmlns="http://www.w3.org/2000/svg">
<path d="M24.002 40C32.8386 40 40.002 32.8366 40.002 24C40.002 15.1634 32.8386 8 24.002 8C15.1654 8 8.00195 15.1634 8.00195 24C8.00195 32.8366 15.1654 40 24.002 40ZM24.002 44C12.9563 44 4.00195 35.0456 4.00195 24C4.00195 12.9543 12.9563 4 24.002 4C35.0476 4 44.002 12.9543 44.002 24C44.002 35.0456 35.0476 44 24.002 44ZM17.7823 26.3416L12.7862 24.7822C11.7063 24.451 11.6999 23.708 13.0279 23.1742L32.494 15.6551C33.623 15.1929 34.265 15.7768 33.899 17.2328L30.5834 32.8754C30.3526 33.9882 29.6814 34.2532 28.7518 33.7396L23.65 29.9646L21.2722 32.2594C21.0278 32.4952 20.829 32.6978 20.4546 32.7486C20.08 32.7992 19.7713 32.6884 19.5467 32.0674L17.8076 26.3256L17.7823 26.3416Z" fill="black"/>
</svg>
